%
M48
M72
T01C0.0276
T02C0.0320
T03C0.0354
T04C0.0400
%
T01
X12500Y4867
X13500Y4867
T02
X18400Y13667
X19200Y13667
X20000Y13667
T03
X17300Y13467
X13500Y10867
X13300Y13467
X13500Y6867
T04
X11520Y1377
X11520Y3157
X14080Y3157
X14080Y1377
X15000Y5767
X15000Y6767
X15000Y7767
X15000Y8767
X15000Y9767
X20000Y9767
X20000Y8767
X20000Y7767
X20000Y6767
X20000Y5767
M30
