G75*
%MOIN*%
%OFA0B0*%
%FSLAX24Y24*%
%IPPOS*%
%LPD*%
%AMOC8*
5,1,8,0,0,1.08239X$1,22.5*
%
%ADD10C,0.0650*%
%ADD11R,0.0650X0.0650*%
%ADD12C,0.0740*%
%ADD13OC8,0.0630*%
%ADD14C,0.0160*%
%ADD15C,0.0100*%
D10*
X013500Y004867D03*
D11*
X012500Y004867D03*
D12*
X011520Y003157D03*
X011520Y001377D03*
X014080Y001377D03*
X014080Y003157D03*
X015000Y005767D03*
X015000Y006767D03*
X015000Y007767D03*
X015000Y008767D03*
X015000Y009767D03*
X013500Y010867D03*
X013300Y013467D03*
X017300Y013467D03*
X020000Y009767D03*
X020000Y008767D03*
X020000Y007767D03*
X020000Y006767D03*
X020000Y005767D03*
X013500Y006867D03*
D13*
X018400Y013667D03*
X019200Y013667D03*
X020000Y013667D03*
D14*
X013500Y006867D02*
X013500Y006067D01*
X015400Y004167D01*
X015400Y002697D01*
X014080Y001377D01*
D15*
X011210Y001830D02*
X011210Y002703D01*
X011214Y002699D01*
X011413Y002617D01*
X011627Y002617D01*
X011826Y002699D01*
X011978Y002851D01*
X012060Y003049D01*
X012060Y003264D01*
X011978Y003463D01*
X011826Y003614D01*
X011627Y003697D01*
X011413Y003697D01*
X011214Y003614D01*
X011210Y003610D01*
X011210Y014057D01*
X018104Y014057D01*
X017915Y013868D01*
X017915Y013466D01*
X018199Y013182D01*
X018601Y013182D01*
X018800Y013381D01*
X018999Y013182D01*
X019401Y013182D01*
X019600Y013381D01*
X019799Y013182D01*
X020201Y013182D01*
X020485Y013466D01*
X020485Y013868D01*
X020296Y014057D01*
X020590Y014057D01*
X020590Y000977D01*
X014444Y000977D01*
X014538Y001071D01*
X014620Y001269D01*
X014620Y001484D01*
X014597Y001540D01*
X015612Y002555D01*
X015650Y002647D01*
X015650Y004216D01*
X015612Y004308D01*
X015542Y004379D01*
X013750Y006170D01*
X013750Y006386D01*
X013806Y006409D01*
X013958Y006561D01*
X014040Y006759D01*
X014040Y006974D01*
X013958Y007173D01*
X013806Y007324D01*
X013607Y007407D01*
X013393Y007407D01*
X013194Y007324D01*
X013042Y007173D01*
X012960Y006974D01*
X012960Y006759D01*
X013042Y006561D01*
X013194Y006409D01*
X013250Y006386D01*
X013250Y006017D01*
X013288Y005925D01*
X015150Y004063D01*
X015150Y002800D01*
X014243Y001894D01*
X014187Y001917D01*
X013973Y001917D01*
X013774Y001834D01*
X013622Y001683D01*
X013540Y001484D01*
X013540Y001269D01*
X013622Y001071D01*
X013716Y000977D01*
X011884Y000977D01*
X011978Y001071D01*
X012060Y001269D01*
X012060Y001484D01*
X011978Y001683D01*
X011826Y001834D01*
X011627Y001917D01*
X011413Y001917D01*
X011214Y001834D01*
X011210Y001830D01*
X011210Y001853D02*
X011259Y001853D01*
X011210Y001952D02*
X014301Y001952D01*
X014400Y002050D02*
X011210Y002050D01*
X011210Y002149D02*
X014498Y002149D01*
X014597Y002247D02*
X011210Y002247D01*
X011210Y002346D02*
X014695Y002346D01*
X014794Y002444D02*
X011210Y002444D01*
X011210Y002543D02*
X014892Y002543D01*
X014991Y002641D02*
X014247Y002641D01*
X014187Y002617D02*
X014386Y002699D01*
X014538Y002851D01*
X014620Y003049D01*
X014620Y003264D01*
X014538Y003463D01*
X014386Y003614D01*
X014187Y003697D01*
X013973Y003697D01*
X013774Y003614D01*
X013622Y003463D01*
X013540Y003264D01*
X013540Y003049D01*
X013622Y002851D01*
X013774Y002699D01*
X013973Y002617D01*
X014187Y002617D01*
X013913Y002641D02*
X011687Y002641D01*
X011867Y002740D02*
X013733Y002740D01*
X013635Y002838D02*
X011965Y002838D01*
X012013Y002937D02*
X013587Y002937D01*
X013546Y003035D02*
X012054Y003035D01*
X012060Y003134D02*
X013540Y003134D01*
X013540Y003232D02*
X012060Y003232D01*
X012032Y003331D02*
X013568Y003331D01*
X013608Y003429D02*
X011992Y003429D01*
X011913Y003528D02*
X013687Y003528D01*
X013802Y003626D02*
X011798Y003626D01*
X011242Y003626D02*
X011210Y003626D01*
X011210Y003725D02*
X015150Y003725D01*
X015150Y003823D02*
X011210Y003823D01*
X011210Y003922D02*
X015150Y003922D01*
X015150Y004020D02*
X011210Y004020D01*
X011210Y004119D02*
X015094Y004119D01*
X014996Y004217D02*
X011210Y004217D01*
X011210Y004316D02*
X014897Y004316D01*
X014799Y004414D02*
X013701Y004414D01*
X013780Y004447D02*
X013598Y004372D01*
X013402Y004372D01*
X013220Y004447D01*
X013080Y004586D01*
X013005Y004768D01*
X013005Y004965D01*
X013080Y005147D01*
X013220Y005286D01*
X013402Y005362D01*
X013598Y005362D01*
X013780Y005286D01*
X013920Y005147D01*
X013995Y004965D01*
X013995Y004768D01*
X013920Y004586D01*
X013780Y004447D01*
X013846Y004513D02*
X014700Y004513D01*
X014602Y004611D02*
X013930Y004611D01*
X013971Y004710D02*
X014503Y004710D01*
X014405Y004808D02*
X013995Y004808D01*
X013995Y004907D02*
X014306Y004907D01*
X014208Y005005D02*
X013978Y005005D01*
X013938Y005104D02*
X014109Y005104D01*
X014011Y005202D02*
X013865Y005202D01*
X013912Y005301D02*
X013746Y005301D01*
X013814Y005399D02*
X011210Y005399D01*
X011210Y005301D02*
X012044Y005301D01*
X012005Y005262D02*
X012105Y005362D01*
X012895Y005362D01*
X012995Y005262D01*
X012995Y004471D01*
X012895Y004372D01*
X012105Y004372D01*
X012005Y004471D01*
X012005Y005262D01*
X012005Y005202D02*
X011210Y005202D01*
X011210Y005104D02*
X012005Y005104D01*
X012005Y005005D02*
X011210Y005005D01*
X011210Y004907D02*
X012005Y004907D01*
X012005Y004808D02*
X011210Y004808D01*
X011210Y004710D02*
X012005Y004710D01*
X012005Y004611D02*
X011210Y004611D01*
X011210Y004513D02*
X012005Y004513D01*
X012062Y004414D02*
X011210Y004414D01*
X011210Y005498D02*
X013715Y005498D01*
X013617Y005596D02*
X011210Y005596D01*
X011210Y005695D02*
X013518Y005695D01*
X013420Y005793D02*
X011210Y005793D01*
X011210Y005892D02*
X013321Y005892D01*
X013261Y005990D02*
X011210Y005990D01*
X011210Y006089D02*
X013250Y006089D01*
X013250Y006187D02*
X011210Y006187D01*
X011210Y006286D02*
X013250Y006286D01*
X013250Y006384D02*
X011210Y006384D01*
X011210Y006483D02*
X013120Y006483D01*
X013034Y006581D02*
X011210Y006581D01*
X011210Y006680D02*
X012993Y006680D01*
X012960Y006778D02*
X011210Y006778D01*
X011210Y006877D02*
X012960Y006877D01*
X012960Y006975D02*
X011210Y006975D01*
X011210Y007074D02*
X013001Y007074D01*
X013042Y007172D02*
X011210Y007172D01*
X011210Y007271D02*
X013140Y007271D01*
X013302Y007369D02*
X011210Y007369D01*
X011210Y007468D02*
X014539Y007468D01*
X014542Y007461D02*
X014694Y007309D01*
X014796Y007267D01*
X014694Y007224D01*
X014542Y007073D01*
X014460Y006874D01*
X014460Y006659D01*
X014542Y006461D01*
X014694Y006309D01*
X014796Y006267D01*
X014694Y006224D01*
X014542Y006073D01*
X014460Y005874D01*
X014460Y005659D01*
X014542Y005461D01*
X014694Y005309D01*
X014893Y005227D01*
X015107Y005227D01*
X015306Y005309D01*
X015458Y005461D01*
X015540Y005659D01*
X015540Y005874D01*
X015458Y006073D01*
X015306Y006224D01*
X015204Y006267D01*
X015306Y006309D01*
X015458Y006461D01*
X015540Y006659D01*
X015540Y006874D01*
X015458Y007073D01*
X015306Y007224D01*
X015204Y007267D01*
X015306Y007309D01*
X015458Y007461D01*
X015540Y007659D01*
X015540Y007874D01*
X015458Y008073D01*
X015306Y008224D01*
X015204Y008267D01*
X015306Y008309D01*
X015458Y008461D01*
X015540Y008659D01*
X015540Y008874D01*
X015458Y009073D01*
X015306Y009224D01*
X015204Y009267D01*
X015306Y009309D01*
X015458Y009461D01*
X015540Y009659D01*
X015540Y009874D01*
X015458Y010073D01*
X015306Y010224D01*
X015107Y010307D01*
X014893Y010307D01*
X014694Y010224D01*
X014542Y010073D01*
X014460Y009874D01*
X014460Y009659D01*
X014542Y009461D01*
X014694Y009309D01*
X014796Y009267D01*
X014694Y009224D01*
X014542Y009073D01*
X014460Y008874D01*
X014460Y008659D01*
X014542Y008461D01*
X014694Y008309D01*
X014796Y008267D01*
X014694Y008224D01*
X014542Y008073D01*
X014460Y007874D01*
X014460Y007659D01*
X014542Y007461D01*
X014499Y007566D02*
X011210Y007566D01*
X011210Y007665D02*
X014460Y007665D01*
X014460Y007763D02*
X011210Y007763D01*
X011210Y007862D02*
X014460Y007862D01*
X014496Y007960D02*
X011210Y007960D01*
X011210Y008059D02*
X014536Y008059D01*
X014627Y008157D02*
X011210Y008157D01*
X011210Y008256D02*
X014770Y008256D01*
X014649Y008354D02*
X011210Y008354D01*
X011210Y008453D02*
X014550Y008453D01*
X014505Y008551D02*
X011210Y008551D01*
X011210Y008650D02*
X014464Y008650D01*
X014460Y008748D02*
X011210Y008748D01*
X011210Y008847D02*
X014460Y008847D01*
X014489Y008945D02*
X011210Y008945D01*
X011210Y009044D02*
X014530Y009044D01*
X014612Y009142D02*
X011210Y009142D01*
X011210Y009241D02*
X014733Y009241D01*
X014664Y009339D02*
X011210Y009339D01*
X011210Y009438D02*
X014565Y009438D01*
X014511Y009536D02*
X011210Y009536D01*
X011210Y009635D02*
X014470Y009635D01*
X014460Y009733D02*
X011210Y009733D01*
X011210Y009832D02*
X014460Y009832D01*
X014483Y009930D02*
X011210Y009930D01*
X011210Y010029D02*
X014524Y010029D01*
X014597Y010127D02*
X011210Y010127D01*
X011210Y010226D02*
X014697Y010226D01*
X015303Y010226D02*
X019697Y010226D01*
X019694Y010224D02*
X019542Y010073D01*
X019460Y009874D01*
X019460Y009659D01*
X019542Y009461D01*
X019694Y009309D01*
X019796Y009267D01*
X019694Y009224D01*
X019542Y009073D01*
X019460Y008874D01*
X019460Y008659D01*
X019542Y008461D01*
X019694Y008309D01*
X019796Y008267D01*
X019694Y008224D01*
X019542Y008073D01*
X019460Y007874D01*
X019460Y007659D01*
X019542Y007461D01*
X019694Y007309D01*
X019796Y007267D01*
X019694Y007224D01*
X019542Y007073D01*
X019460Y006874D01*
X019460Y006659D01*
X019542Y006461D01*
X019694Y006309D01*
X019796Y006267D01*
X019694Y006224D01*
X019542Y006073D01*
X019460Y005874D01*
X019460Y005659D01*
X019542Y005461D01*
X019694Y005309D01*
X019893Y005227D01*
X020107Y005227D01*
X020306Y005309D01*
X020458Y005461D01*
X020540Y005659D01*
X020540Y005874D01*
X020458Y006073D01*
X020306Y006224D01*
X020204Y006267D01*
X020306Y006309D01*
X020458Y006461D01*
X020540Y006659D01*
X020540Y006874D01*
X020458Y007073D01*
X020306Y007224D01*
X020204Y007267D01*
X020306Y007309D01*
X020458Y007461D01*
X020540Y007659D01*
X020540Y007874D01*
X020458Y008073D01*
X020306Y008224D01*
X020204Y008267D01*
X020306Y008309D01*
X020458Y008461D01*
X020540Y008659D01*
X020540Y008874D01*
X020458Y009073D01*
X020306Y009224D01*
X020204Y009267D01*
X020306Y009309D01*
X020458Y009461D01*
X020540Y009659D01*
X020540Y009874D01*
X020458Y010073D01*
X020306Y010224D01*
X020107Y010307D01*
X019893Y010307D01*
X019694Y010224D01*
X019597Y010127D02*
X015403Y010127D01*
X015476Y010029D02*
X019524Y010029D01*
X019483Y009930D02*
X015517Y009930D01*
X015540Y009832D02*
X019460Y009832D01*
X019460Y009733D02*
X015540Y009733D01*
X015530Y009635D02*
X019470Y009635D01*
X019511Y009536D02*
X015489Y009536D01*
X015435Y009438D02*
X019565Y009438D01*
X019664Y009339D02*
X015336Y009339D01*
X015267Y009241D02*
X019733Y009241D01*
X019612Y009142D02*
X015388Y009142D01*
X015470Y009044D02*
X019530Y009044D01*
X019489Y008945D02*
X015511Y008945D01*
X015540Y008847D02*
X019460Y008847D01*
X019460Y008748D02*
X015540Y008748D01*
X015536Y008650D02*
X019464Y008650D01*
X019505Y008551D02*
X015495Y008551D01*
X015450Y008453D02*
X019550Y008453D01*
X019649Y008354D02*
X015351Y008354D01*
X015230Y008256D02*
X019770Y008256D01*
X019627Y008157D02*
X015373Y008157D01*
X015464Y008059D02*
X019536Y008059D01*
X019496Y007960D02*
X015504Y007960D01*
X015540Y007862D02*
X019460Y007862D01*
X019460Y007763D02*
X015540Y007763D01*
X015540Y007665D02*
X019460Y007665D01*
X019499Y007566D02*
X015501Y007566D01*
X015461Y007468D02*
X019539Y007468D01*
X019634Y007369D02*
X015366Y007369D01*
X015214Y007271D02*
X019786Y007271D01*
X019642Y007172D02*
X015358Y007172D01*
X015457Y007074D02*
X019543Y007074D01*
X019502Y006975D02*
X015498Y006975D01*
X015539Y006877D02*
X019461Y006877D01*
X019460Y006778D02*
X015540Y006778D01*
X015540Y006680D02*
X019460Y006680D01*
X019492Y006581D02*
X015508Y006581D01*
X015467Y006483D02*
X019533Y006483D01*
X019619Y006384D02*
X015381Y006384D01*
X015250Y006286D02*
X019750Y006286D01*
X019657Y006187D02*
X015343Y006187D01*
X015442Y006089D02*
X019558Y006089D01*
X019508Y005990D02*
X015492Y005990D01*
X015533Y005892D02*
X019467Y005892D01*
X019460Y005793D02*
X015540Y005793D01*
X015540Y005695D02*
X019460Y005695D01*
X019486Y005596D02*
X015514Y005596D01*
X015473Y005498D02*
X019527Y005498D01*
X019604Y005399D02*
X015396Y005399D01*
X015286Y005301D02*
X019714Y005301D01*
X020286Y005301D02*
X020590Y005301D01*
X020590Y005399D02*
X020396Y005399D01*
X020473Y005498D02*
X020590Y005498D01*
X020590Y005596D02*
X020514Y005596D01*
X020540Y005695D02*
X020590Y005695D01*
X020590Y005793D02*
X020540Y005793D01*
X020533Y005892D02*
X020590Y005892D01*
X020590Y005990D02*
X020492Y005990D01*
X020442Y006089D02*
X020590Y006089D01*
X020590Y006187D02*
X020343Y006187D01*
X020250Y006286D02*
X020590Y006286D01*
X020590Y006384D02*
X020381Y006384D01*
X020467Y006483D02*
X020590Y006483D01*
X020590Y006581D02*
X020508Y006581D01*
X020540Y006680D02*
X020590Y006680D01*
X020590Y006778D02*
X020540Y006778D01*
X020539Y006877D02*
X020590Y006877D01*
X020590Y006975D02*
X020498Y006975D01*
X020457Y007074D02*
X020590Y007074D01*
X020590Y007172D02*
X020358Y007172D01*
X020214Y007271D02*
X020590Y007271D01*
X020590Y007369D02*
X020366Y007369D01*
X020461Y007468D02*
X020590Y007468D01*
X020590Y007566D02*
X020501Y007566D01*
X020540Y007665D02*
X020590Y007665D01*
X020590Y007763D02*
X020540Y007763D01*
X020540Y007862D02*
X020590Y007862D01*
X020590Y007960D02*
X020504Y007960D01*
X020464Y008059D02*
X020590Y008059D01*
X020590Y008157D02*
X020373Y008157D01*
X020230Y008256D02*
X020590Y008256D01*
X020590Y008354D02*
X020351Y008354D01*
X020450Y008453D02*
X020590Y008453D01*
X020590Y008551D02*
X020495Y008551D01*
X020536Y008650D02*
X020590Y008650D01*
X020590Y008748D02*
X020540Y008748D01*
X020540Y008847D02*
X020590Y008847D01*
X020590Y008945D02*
X020511Y008945D01*
X020470Y009044D02*
X020590Y009044D01*
X020590Y009142D02*
X020388Y009142D01*
X020267Y009241D02*
X020590Y009241D01*
X020590Y009339D02*
X020336Y009339D01*
X020435Y009438D02*
X020590Y009438D01*
X020590Y009536D02*
X020489Y009536D01*
X020530Y009635D02*
X020590Y009635D01*
X020590Y009733D02*
X020540Y009733D01*
X020540Y009832D02*
X020590Y009832D01*
X020590Y009930D02*
X020517Y009930D01*
X020476Y010029D02*
X020590Y010029D01*
X020590Y010127D02*
X020403Y010127D01*
X020303Y010226D02*
X020590Y010226D01*
X020590Y010324D02*
X011210Y010324D01*
X011210Y010423D02*
X013180Y010423D01*
X013194Y010409D02*
X013393Y010327D01*
X013607Y010327D01*
X013806Y010409D01*
X013958Y010561D01*
X014040Y010759D01*
X014040Y010974D01*
X013958Y011173D01*
X013806Y011324D01*
X013607Y011407D01*
X013393Y011407D01*
X013194Y011324D01*
X013042Y011173D01*
X012960Y010974D01*
X012960Y010759D01*
X013042Y010561D01*
X013194Y010409D01*
X013082Y010521D02*
X011210Y010521D01*
X011210Y010620D02*
X013018Y010620D01*
X012977Y010718D02*
X011210Y010718D01*
X011210Y010817D02*
X012960Y010817D01*
X012960Y010915D02*
X011210Y010915D01*
X011210Y011014D02*
X012976Y011014D01*
X013017Y011112D02*
X011210Y011112D01*
X011210Y011211D02*
X013080Y011211D01*
X013179Y011309D02*
X011210Y011309D01*
X011210Y011408D02*
X020590Y011408D01*
X020590Y011506D02*
X011210Y011506D01*
X011210Y011605D02*
X020590Y011605D01*
X020590Y011703D02*
X011210Y011703D01*
X011210Y011802D02*
X020590Y011802D01*
X020590Y011900D02*
X011210Y011900D01*
X011210Y011999D02*
X020590Y011999D01*
X020590Y012097D02*
X011210Y012097D01*
X011210Y012196D02*
X020590Y012196D01*
X020590Y012294D02*
X011210Y012294D01*
X011210Y012393D02*
X020590Y012393D01*
X020590Y012491D02*
X011210Y012491D01*
X011210Y012590D02*
X020590Y012590D01*
X020590Y012688D02*
X011210Y012688D01*
X011210Y012787D02*
X020590Y012787D01*
X020590Y012885D02*
X011210Y012885D01*
X011210Y012984D02*
X013055Y012984D01*
X012994Y013009D02*
X013193Y012927D01*
X013407Y012927D01*
X013606Y013009D01*
X013758Y013161D01*
X013840Y013359D01*
X013840Y013574D01*
X013758Y013773D01*
X013606Y013924D01*
X013407Y014007D01*
X013193Y014007D01*
X012994Y013924D01*
X012842Y013773D01*
X012760Y013574D01*
X012760Y013359D01*
X012842Y013161D01*
X012994Y013009D01*
X012921Y013082D02*
X011210Y013082D01*
X011210Y013181D02*
X012834Y013181D01*
X012793Y013279D02*
X011210Y013279D01*
X011210Y013378D02*
X012760Y013378D01*
X012760Y013476D02*
X011210Y013476D01*
X011210Y013575D02*
X012760Y013575D01*
X012801Y013673D02*
X011210Y013673D01*
X011210Y013772D02*
X012842Y013772D01*
X012940Y013870D02*
X011210Y013870D01*
X011210Y013969D02*
X013101Y013969D01*
X013499Y013969D02*
X017101Y013969D01*
X017193Y014007D02*
X016994Y013924D01*
X016842Y013773D01*
X016760Y013574D01*
X016760Y013359D01*
X016842Y013161D01*
X016994Y013009D01*
X017193Y012927D01*
X017407Y012927D01*
X017606Y013009D01*
X017758Y013161D01*
X017840Y013359D01*
X017840Y013574D01*
X017758Y013773D01*
X017606Y013924D01*
X017407Y014007D01*
X017193Y014007D01*
X016940Y013870D02*
X013660Y013870D01*
X013758Y013772D02*
X016842Y013772D01*
X016801Y013673D02*
X013799Y013673D01*
X013840Y013575D02*
X016760Y013575D01*
X016760Y013476D02*
X013840Y013476D01*
X013840Y013378D02*
X016760Y013378D01*
X016793Y013279D02*
X013807Y013279D01*
X013766Y013181D02*
X016834Y013181D01*
X016921Y013082D02*
X013679Y013082D01*
X013545Y012984D02*
X017055Y012984D01*
X017545Y012984D02*
X020590Y012984D01*
X020590Y013082D02*
X017679Y013082D01*
X017766Y013181D02*
X020590Y013181D01*
X020590Y013279D02*
X020298Y013279D01*
X020397Y013378D02*
X020590Y013378D01*
X020590Y013476D02*
X020485Y013476D01*
X020485Y013575D02*
X020590Y013575D01*
X020590Y013673D02*
X020485Y013673D01*
X020485Y013772D02*
X020590Y013772D01*
X020590Y013870D02*
X020482Y013870D01*
X020384Y013969D02*
X020590Y013969D01*
X019704Y014057D02*
X019600Y013953D01*
X019496Y014057D01*
X019704Y014057D01*
X019616Y013969D02*
X019584Y013969D01*
X018904Y014057D02*
X018696Y014057D01*
X018800Y013953D01*
X018904Y014057D01*
X018816Y013969D02*
X018784Y013969D01*
X018797Y013378D02*
X018803Y013378D01*
X018902Y013279D02*
X018698Y013279D01*
X018102Y013279D02*
X017807Y013279D01*
X017840Y013378D02*
X018003Y013378D01*
X017915Y013476D02*
X017840Y013476D01*
X017840Y013575D02*
X017915Y013575D01*
X017915Y013673D02*
X017799Y013673D01*
X017758Y013772D02*
X017915Y013772D01*
X017918Y013870D02*
X017660Y013870D01*
X017499Y013969D02*
X018016Y013969D01*
X019498Y013279D02*
X019702Y013279D01*
X019603Y013378D02*
X019597Y013378D01*
X020590Y011309D02*
X013821Y011309D01*
X013920Y011211D02*
X020590Y011211D01*
X020590Y011112D02*
X013983Y011112D01*
X014024Y011014D02*
X020590Y011014D01*
X020590Y010915D02*
X014040Y010915D01*
X014040Y010817D02*
X020590Y010817D01*
X020590Y010718D02*
X014023Y010718D01*
X013982Y010620D02*
X020590Y010620D01*
X020590Y010521D02*
X013918Y010521D01*
X013820Y010423D02*
X020590Y010423D01*
X014786Y007271D02*
X013860Y007271D01*
X013958Y007172D02*
X014642Y007172D01*
X014543Y007074D02*
X013999Y007074D01*
X014040Y006975D02*
X014502Y006975D01*
X014461Y006877D02*
X014040Y006877D01*
X014040Y006778D02*
X014460Y006778D01*
X014460Y006680D02*
X014007Y006680D01*
X013966Y006581D02*
X014492Y006581D01*
X014533Y006483D02*
X013880Y006483D01*
X013750Y006384D02*
X014619Y006384D01*
X014750Y006286D02*
X013750Y006286D01*
X013750Y006187D02*
X014657Y006187D01*
X014558Y006089D02*
X013832Y006089D01*
X013930Y005990D02*
X014508Y005990D01*
X014467Y005892D02*
X014029Y005892D01*
X014127Y005793D02*
X014460Y005793D01*
X014460Y005695D02*
X014226Y005695D01*
X014324Y005596D02*
X014486Y005596D01*
X014527Y005498D02*
X014423Y005498D01*
X014521Y005399D02*
X014604Y005399D01*
X014620Y005301D02*
X014714Y005301D01*
X014718Y005202D02*
X020590Y005202D01*
X020590Y005104D02*
X014817Y005104D01*
X014915Y005005D02*
X020590Y005005D01*
X020590Y004907D02*
X015014Y004907D01*
X015112Y004808D02*
X020590Y004808D01*
X020590Y004710D02*
X015211Y004710D01*
X015309Y004611D02*
X020590Y004611D01*
X020590Y004513D02*
X015408Y004513D01*
X015506Y004414D02*
X020590Y004414D01*
X020590Y004316D02*
X015605Y004316D01*
X015650Y004217D02*
X020590Y004217D01*
X020590Y004119D02*
X015650Y004119D01*
X015650Y004020D02*
X020590Y004020D01*
X020590Y003922D02*
X015650Y003922D01*
X015650Y003823D02*
X020590Y003823D01*
X020590Y003725D02*
X015650Y003725D01*
X015650Y003626D02*
X020590Y003626D01*
X020590Y003528D02*
X015650Y003528D01*
X015650Y003429D02*
X020590Y003429D01*
X020590Y003331D02*
X015650Y003331D01*
X015650Y003232D02*
X020590Y003232D01*
X020590Y003134D02*
X015650Y003134D01*
X015650Y003035D02*
X020590Y003035D01*
X020590Y002937D02*
X015650Y002937D01*
X015650Y002838D02*
X020590Y002838D01*
X020590Y002740D02*
X015650Y002740D01*
X015648Y002641D02*
X020590Y002641D01*
X020590Y002543D02*
X015600Y002543D01*
X015501Y002444D02*
X020590Y002444D01*
X020590Y002346D02*
X015403Y002346D01*
X015304Y002247D02*
X020590Y002247D01*
X020590Y002149D02*
X015206Y002149D01*
X015107Y002050D02*
X020590Y002050D01*
X020590Y001952D02*
X015009Y001952D01*
X014910Y001853D02*
X020590Y001853D01*
X020590Y001755D02*
X014812Y001755D01*
X014713Y001656D02*
X020590Y001656D01*
X020590Y001558D02*
X014615Y001558D01*
X014620Y001459D02*
X020590Y001459D01*
X020590Y001361D02*
X014620Y001361D01*
X014617Y001262D02*
X020590Y001262D01*
X020590Y001164D02*
X014576Y001164D01*
X014532Y001065D02*
X020590Y001065D01*
X015150Y002838D02*
X014525Y002838D01*
X014573Y002937D02*
X015150Y002937D01*
X015150Y003035D02*
X014614Y003035D01*
X014620Y003134D02*
X015150Y003134D01*
X015150Y003232D02*
X014620Y003232D01*
X014592Y003331D02*
X015150Y003331D01*
X015150Y003429D02*
X014552Y003429D01*
X014473Y003528D02*
X015150Y003528D01*
X015150Y003626D02*
X014358Y003626D01*
X013299Y004414D02*
X012938Y004414D01*
X012995Y004513D02*
X013154Y004513D01*
X013070Y004611D02*
X012995Y004611D01*
X012995Y004710D02*
X013029Y004710D01*
X013005Y004808D02*
X012995Y004808D01*
X012995Y004907D02*
X013005Y004907D01*
X012995Y005005D02*
X013022Y005005D01*
X012995Y005104D02*
X013062Y005104D01*
X012995Y005202D02*
X013135Y005202D01*
X013254Y005301D02*
X012956Y005301D01*
X013698Y007369D02*
X014634Y007369D01*
X014427Y002740D02*
X015089Y002740D01*
X013819Y001853D02*
X011781Y001853D01*
X011906Y001755D02*
X013694Y001755D01*
X013611Y001656D02*
X011989Y001656D01*
X012030Y001558D02*
X013570Y001558D01*
X013540Y001459D02*
X012060Y001459D01*
X012060Y001361D02*
X013540Y001361D01*
X013543Y001262D02*
X012057Y001262D01*
X012016Y001164D02*
X013584Y001164D01*
X013628Y001065D02*
X011972Y001065D01*
X011353Y002641D02*
X011210Y002641D01*
M02*
