G75*
%MOIN*%
%OFA0B0*%
%FSLAX24Y24*%
%IPPOS*%
%LPD*%
%AMOC8*
5,1,8,0,0,1.08239X$1,22.5*
%
%ADD10C,0.0080*%
%ADD11C,0.0650*%
%ADD12R,0.0650X0.0650*%
%ADD13C,0.0740*%
%ADD14OC8,0.0630*%
%ADD15C,0.0100*%
%ADD16C,0.0160*%
D10*
X011000Y000767D02*
X011000Y014267D01*
X020800Y014267D01*
X020800Y000767D01*
X011000Y000767D01*
D11*
X013500Y004867D03*
D12*
X012500Y004867D03*
D13*
X011520Y003157D03*
X011520Y001377D03*
X014080Y001377D03*
X014080Y003157D03*
X015000Y005767D03*
X015000Y006767D03*
X015000Y007767D03*
X015000Y008767D03*
X015000Y009767D03*
X013500Y010867D03*
X013300Y013467D03*
X017300Y013467D03*
X020000Y009767D03*
X020000Y008767D03*
X020000Y007767D03*
X020000Y006767D03*
X020000Y005767D03*
X013500Y006867D03*
D14*
X018400Y013667D03*
X019200Y013667D03*
X020000Y013667D03*
D15*
X020030Y013673D02*
X020590Y013673D01*
X020590Y013575D02*
X020465Y013575D01*
X020465Y013637D02*
X020030Y013637D01*
X020030Y013697D01*
X020465Y013697D01*
X020465Y013859D01*
X020268Y014057D01*
X020590Y014057D01*
X020590Y000977D01*
X014444Y000977D01*
X014538Y001071D01*
X014620Y001269D01*
X014620Y001484D01*
X014538Y001683D01*
X014386Y001834D01*
X014187Y001917D01*
X013973Y001917D01*
X013774Y001834D01*
X013622Y001683D01*
X013540Y001484D01*
X013540Y001269D01*
X013622Y001071D01*
X013716Y000977D01*
X011884Y000977D01*
X011978Y001071D01*
X012060Y001269D01*
X012060Y001484D01*
X011978Y001683D01*
X011826Y001834D01*
X011627Y001917D01*
X011413Y001917D01*
X011214Y001834D01*
X011210Y001830D01*
X011210Y002703D01*
X011214Y002699D01*
X011413Y002617D01*
X011627Y002617D01*
X011826Y002699D01*
X011978Y002851D01*
X012060Y003049D01*
X012060Y003264D01*
X011978Y003463D01*
X011826Y003614D01*
X011627Y003697D01*
X011413Y003697D01*
X011214Y003614D01*
X011210Y003610D01*
X011210Y014057D01*
X018104Y014057D01*
X017915Y013868D01*
X017915Y013687D01*
X017793Y013687D01*
X017758Y013773D01*
X017606Y013924D01*
X017407Y014007D01*
X017193Y014007D01*
X016994Y013924D01*
X016842Y013773D01*
X016760Y013574D01*
X016760Y013359D01*
X016842Y013161D01*
X016994Y013009D01*
X017193Y012927D01*
X017407Y012927D01*
X017606Y013009D01*
X017758Y013161D01*
X017793Y013247D01*
X018134Y013247D01*
X018199Y013182D01*
X018601Y013182D01*
X018800Y013381D01*
X018950Y013231D01*
X018950Y010970D01*
X016458Y008479D01*
X016388Y008408D01*
X016350Y008316D01*
X016350Y007470D01*
X015540Y006660D01*
X015540Y006874D01*
X015517Y006930D01*
X016312Y007725D01*
X016350Y007817D01*
X016350Y010416D01*
X016312Y010508D01*
X016242Y010579D01*
X013709Y013112D01*
X013758Y013161D01*
X013840Y013359D01*
X013840Y013574D01*
X013758Y013773D01*
X013606Y013924D01*
X013407Y014007D01*
X013193Y014007D01*
X012994Y013924D01*
X012842Y013773D01*
X012760Y013574D01*
X012760Y013359D01*
X012842Y013161D01*
X012994Y013009D01*
X013182Y012931D01*
X015850Y010263D01*
X015850Y007970D01*
X015540Y007660D01*
X015540Y007874D01*
X015458Y008073D01*
X015306Y008224D01*
X015204Y008267D01*
X015306Y008309D01*
X015458Y008461D01*
X015540Y008659D01*
X015540Y008874D01*
X015458Y009073D01*
X015306Y009224D01*
X015204Y009267D01*
X015306Y009309D01*
X015458Y009461D01*
X015540Y009659D01*
X015540Y009874D01*
X015458Y010073D01*
X015306Y010224D01*
X015107Y010307D01*
X014893Y010307D01*
X014694Y010224D01*
X014574Y010104D01*
X014004Y010673D01*
X014040Y010759D01*
X014040Y010974D01*
X013958Y011173D01*
X013806Y011324D01*
X013607Y011407D01*
X013393Y011407D01*
X013194Y011324D01*
X013042Y011173D01*
X012960Y010974D01*
X012960Y010759D01*
X013042Y010561D01*
X013194Y010409D01*
X013393Y010327D01*
X013607Y010327D01*
X013693Y010362D01*
X014505Y009550D01*
X014542Y009461D01*
X014694Y009309D01*
X014796Y009267D01*
X014694Y009224D01*
X014542Y009073D01*
X014460Y008874D01*
X014460Y008659D01*
X014483Y008603D01*
X013288Y007408D01*
X013266Y007354D01*
X013194Y007324D01*
X013042Y007173D01*
X012960Y006974D01*
X012960Y006759D01*
X013042Y006561D01*
X013194Y006409D01*
X013393Y006327D01*
X013607Y006327D01*
X013806Y006409D01*
X013958Y006561D01*
X014040Y006759D01*
X014040Y006974D01*
X013958Y007173D01*
X013859Y007272D01*
X014460Y007873D01*
X014460Y007659D01*
X014542Y007461D01*
X014694Y007309D01*
X014796Y007267D01*
X014694Y007224D01*
X014542Y007073D01*
X014460Y006874D01*
X014460Y006659D01*
X014542Y006461D01*
X014694Y006309D01*
X014796Y006267D01*
X014694Y006224D01*
X014542Y006073D01*
X014519Y006017D01*
X013050Y006017D01*
X012958Y005979D01*
X012888Y005908D01*
X012341Y005362D01*
X012105Y005362D01*
X012005Y005262D01*
X012005Y004471D01*
X012105Y004372D01*
X012895Y004372D01*
X012995Y004471D01*
X012995Y005262D01*
X012972Y005285D01*
X013204Y005517D01*
X014519Y005517D01*
X014542Y005461D01*
X014694Y005309D01*
X014893Y005227D01*
X015107Y005227D01*
X015306Y005309D01*
X015458Y005461D01*
X015540Y005659D01*
X015540Y005874D01*
X015517Y005930D01*
X016812Y007225D01*
X016850Y007317D01*
X016850Y008163D01*
X019412Y010725D01*
X019450Y010817D01*
X019450Y013231D01*
X019614Y013395D01*
X019807Y013202D01*
X019970Y013202D01*
X019970Y013637D01*
X020030Y013637D01*
X020030Y013202D01*
X020193Y013202D01*
X020465Y013474D01*
X020465Y013637D01*
X020465Y013772D02*
X020590Y013772D01*
X020590Y013870D02*
X020454Y013870D01*
X020356Y013969D02*
X020590Y013969D01*
X020030Y013575D02*
X019970Y013575D01*
X019970Y013476D02*
X020030Y013476D01*
X020030Y013378D02*
X019970Y013378D01*
X019970Y013279D02*
X020030Y013279D01*
X020270Y013279D02*
X020590Y013279D01*
X020590Y013181D02*
X019450Y013181D01*
X019450Y013082D02*
X020590Y013082D01*
X020590Y012984D02*
X019450Y012984D01*
X019450Y012885D02*
X020590Y012885D01*
X020590Y012787D02*
X019450Y012787D01*
X019450Y012688D02*
X020590Y012688D01*
X020590Y012590D02*
X019450Y012590D01*
X019450Y012491D02*
X020590Y012491D01*
X020590Y012393D02*
X019450Y012393D01*
X019450Y012294D02*
X020590Y012294D01*
X020590Y012196D02*
X019450Y012196D01*
X019450Y012097D02*
X020590Y012097D01*
X020590Y011999D02*
X019450Y011999D01*
X019450Y011900D02*
X020590Y011900D01*
X020590Y011802D02*
X019450Y011802D01*
X019450Y011703D02*
X020590Y011703D01*
X020590Y011605D02*
X019450Y011605D01*
X019450Y011506D02*
X020590Y011506D01*
X020590Y011408D02*
X019450Y011408D01*
X019450Y011309D02*
X020590Y011309D01*
X020590Y011211D02*
X019450Y011211D01*
X019450Y011112D02*
X020590Y011112D01*
X020590Y011014D02*
X019450Y011014D01*
X019450Y010915D02*
X020590Y010915D01*
X020590Y010817D02*
X019450Y010817D01*
X019405Y010718D02*
X020590Y010718D01*
X020590Y010620D02*
X019307Y010620D01*
X019208Y010521D02*
X020590Y010521D01*
X020590Y010423D02*
X019110Y010423D01*
X019011Y010324D02*
X020590Y010324D01*
X020590Y010226D02*
X020303Y010226D01*
X020306Y010224D02*
X020107Y010307D01*
X019893Y010307D01*
X019694Y010224D01*
X019542Y010073D01*
X019460Y009874D01*
X019460Y009659D01*
X019542Y009461D01*
X019694Y009309D01*
X019796Y009267D01*
X019694Y009224D01*
X019542Y009073D01*
X019460Y008874D01*
X019460Y008659D01*
X019542Y008461D01*
X019694Y008309D01*
X019796Y008267D01*
X019694Y008224D01*
X019542Y008073D01*
X019460Y007874D01*
X019460Y007659D01*
X019542Y007461D01*
X019694Y007309D01*
X019822Y007256D01*
X019800Y007249D01*
X019727Y007211D01*
X019661Y007163D01*
X019603Y007105D01*
X019555Y007039D01*
X019518Y006966D01*
X019493Y006888D01*
X019481Y006817D01*
X019950Y006817D01*
X019950Y006717D01*
X019481Y006717D01*
X019493Y006645D01*
X019518Y006567D01*
X019555Y006494D01*
X019603Y006428D01*
X019661Y006370D01*
X019727Y006322D01*
X019800Y006285D01*
X019822Y006278D01*
X019694Y006224D01*
X019542Y006073D01*
X019460Y005874D01*
X019460Y005659D01*
X019542Y005461D01*
X019694Y005309D01*
X019893Y005227D01*
X020107Y005227D01*
X020306Y005309D01*
X020458Y005461D01*
X020540Y005659D01*
X020540Y005874D01*
X020458Y006073D01*
X020306Y006224D01*
X020178Y006278D01*
X020200Y006285D01*
X020273Y006322D01*
X020339Y006370D01*
X020397Y006428D01*
X020445Y006494D01*
X020482Y006567D01*
X020507Y006645D01*
X020519Y006717D01*
X020050Y006717D01*
X020050Y006817D01*
X020519Y006817D01*
X020507Y006888D01*
X020482Y006966D01*
X020445Y007039D01*
X020397Y007105D01*
X020339Y007163D01*
X020273Y007211D01*
X020200Y007249D01*
X020178Y007256D01*
X020306Y007309D01*
X020458Y007461D01*
X020540Y007659D01*
X020540Y007874D01*
X020458Y008073D01*
X020306Y008224D01*
X020204Y008267D01*
X020306Y008309D01*
X020458Y008461D01*
X020540Y008659D01*
X020540Y008874D01*
X020458Y009073D01*
X020306Y009224D01*
X020204Y009267D01*
X020306Y009309D01*
X020458Y009461D01*
X020540Y009659D01*
X020540Y009874D01*
X020458Y010073D01*
X020306Y010224D01*
X020403Y010127D02*
X020590Y010127D01*
X020590Y010029D02*
X020476Y010029D01*
X020517Y009930D02*
X020590Y009930D01*
X020590Y009832D02*
X020540Y009832D01*
X020540Y009733D02*
X020590Y009733D01*
X020590Y009635D02*
X020530Y009635D01*
X020489Y009536D02*
X020590Y009536D01*
X020590Y009438D02*
X020435Y009438D01*
X020336Y009339D02*
X020590Y009339D01*
X020590Y009241D02*
X020267Y009241D01*
X020388Y009142D02*
X020590Y009142D01*
X020590Y009044D02*
X020470Y009044D01*
X020511Y008945D02*
X020590Y008945D01*
X020590Y008847D02*
X020540Y008847D01*
X020540Y008748D02*
X020590Y008748D01*
X020590Y008650D02*
X020536Y008650D01*
X020495Y008551D02*
X020590Y008551D01*
X020590Y008453D02*
X020450Y008453D01*
X020351Y008354D02*
X020590Y008354D01*
X020590Y008256D02*
X020230Y008256D01*
X020373Y008157D02*
X020590Y008157D01*
X020590Y008059D02*
X020464Y008059D01*
X020504Y007960D02*
X020590Y007960D01*
X020590Y007862D02*
X020540Y007862D01*
X020540Y007763D02*
X020590Y007763D01*
X020590Y007665D02*
X020540Y007665D01*
X020501Y007566D02*
X020590Y007566D01*
X020590Y007468D02*
X020461Y007468D01*
X020366Y007369D02*
X020590Y007369D01*
X020590Y007271D02*
X020214Y007271D01*
X020327Y007172D02*
X020590Y007172D01*
X020590Y007074D02*
X020420Y007074D01*
X020477Y006975D02*
X020590Y006975D01*
X020590Y006877D02*
X020509Y006877D01*
X020590Y006778D02*
X020050Y006778D01*
X019950Y006778D02*
X016365Y006778D01*
X016267Y006680D02*
X019487Y006680D01*
X019514Y006581D02*
X016168Y006581D01*
X016070Y006483D02*
X019564Y006483D01*
X019647Y006384D02*
X015971Y006384D01*
X015873Y006286D02*
X019799Y006286D01*
X019657Y006187D02*
X015774Y006187D01*
X015676Y006089D02*
X019558Y006089D01*
X019508Y005990D02*
X015577Y005990D01*
X015533Y005892D02*
X019467Y005892D01*
X019460Y005793D02*
X015540Y005793D01*
X015540Y005695D02*
X019460Y005695D01*
X019486Y005596D02*
X015514Y005596D01*
X015473Y005498D02*
X019527Y005498D01*
X019604Y005399D02*
X015396Y005399D01*
X015286Y005301D02*
X019714Y005301D01*
X020286Y005301D02*
X020590Y005301D01*
X020590Y005399D02*
X020396Y005399D01*
X020473Y005498D02*
X020590Y005498D01*
X020590Y005596D02*
X020514Y005596D01*
X020540Y005695D02*
X020590Y005695D01*
X020590Y005793D02*
X020540Y005793D01*
X020533Y005892D02*
X020590Y005892D01*
X020590Y005990D02*
X020492Y005990D01*
X020442Y006089D02*
X020590Y006089D01*
X020590Y006187D02*
X020343Y006187D01*
X020201Y006286D02*
X020590Y006286D01*
X020590Y006384D02*
X020353Y006384D01*
X020436Y006483D02*
X020590Y006483D01*
X020590Y006581D02*
X020486Y006581D01*
X020513Y006680D02*
X020590Y006680D01*
X019786Y007271D02*
X016831Y007271D01*
X016850Y007369D02*
X019634Y007369D01*
X019539Y007468D02*
X016850Y007468D01*
X016850Y007566D02*
X019499Y007566D01*
X019460Y007665D02*
X016850Y007665D01*
X016850Y007763D02*
X019460Y007763D01*
X019460Y007862D02*
X016850Y007862D01*
X016850Y007960D02*
X019496Y007960D01*
X019536Y008059D02*
X016850Y008059D01*
X016850Y008157D02*
X019627Y008157D01*
X019770Y008256D02*
X016943Y008256D01*
X017041Y008354D02*
X019649Y008354D01*
X019550Y008453D02*
X017140Y008453D01*
X017238Y008551D02*
X019505Y008551D01*
X019464Y008650D02*
X017337Y008650D01*
X017435Y008748D02*
X019460Y008748D01*
X019460Y008847D02*
X017534Y008847D01*
X017632Y008945D02*
X019489Y008945D01*
X019530Y009044D02*
X017731Y009044D01*
X017829Y009142D02*
X019612Y009142D01*
X019733Y009241D02*
X017928Y009241D01*
X018026Y009339D02*
X019664Y009339D01*
X019565Y009438D02*
X018125Y009438D01*
X018223Y009536D02*
X019511Y009536D01*
X019470Y009635D02*
X018322Y009635D01*
X018420Y009733D02*
X019460Y009733D01*
X019460Y009832D02*
X018519Y009832D01*
X018617Y009930D02*
X019483Y009930D01*
X019524Y010029D02*
X018716Y010029D01*
X018814Y010127D02*
X019597Y010127D01*
X019697Y010226D02*
X018913Y010226D01*
X018501Y010521D02*
X016299Y010521D01*
X016347Y010423D02*
X018402Y010423D01*
X018304Y010324D02*
X016350Y010324D01*
X016350Y010226D02*
X018205Y010226D01*
X018107Y010127D02*
X016350Y010127D01*
X016350Y010029D02*
X018008Y010029D01*
X017910Y009930D02*
X016350Y009930D01*
X016350Y009832D02*
X017811Y009832D01*
X017713Y009733D02*
X016350Y009733D01*
X016350Y009635D02*
X017614Y009635D01*
X017516Y009536D02*
X016350Y009536D01*
X016350Y009438D02*
X017417Y009438D01*
X017319Y009339D02*
X016350Y009339D01*
X016350Y009241D02*
X017220Y009241D01*
X017122Y009142D02*
X016350Y009142D01*
X016350Y009044D02*
X017023Y009044D01*
X016925Y008945D02*
X016350Y008945D01*
X016350Y008847D02*
X016826Y008847D01*
X016728Y008748D02*
X016350Y008748D01*
X016350Y008650D02*
X016629Y008650D01*
X016531Y008551D02*
X016350Y008551D01*
X016350Y008453D02*
X016432Y008453D01*
X016366Y008354D02*
X016350Y008354D01*
X016350Y008256D02*
X016350Y008256D01*
X016350Y008157D02*
X016350Y008157D01*
X016350Y008059D02*
X016350Y008059D01*
X016350Y007960D02*
X016350Y007960D01*
X016350Y007862D02*
X016350Y007862D01*
X016350Y007763D02*
X016328Y007763D01*
X016350Y007665D02*
X016252Y007665D01*
X016350Y007566D02*
X016153Y007566D01*
X016055Y007468D02*
X016347Y007468D01*
X016249Y007369D02*
X015956Y007369D01*
X015858Y007271D02*
X016150Y007271D01*
X016052Y007172D02*
X015759Y007172D01*
X015661Y007074D02*
X015953Y007074D01*
X015855Y006975D02*
X015562Y006975D01*
X015539Y006877D02*
X015756Y006877D01*
X015658Y006778D02*
X015540Y006778D01*
X015540Y006680D02*
X015559Y006680D01*
X014750Y006286D02*
X011210Y006286D01*
X011210Y006384D02*
X013254Y006384D01*
X013120Y006483D02*
X011210Y006483D01*
X011210Y006581D02*
X013034Y006581D01*
X012993Y006680D02*
X011210Y006680D01*
X011210Y006778D02*
X012960Y006778D01*
X012960Y006877D02*
X011210Y006877D01*
X011210Y006975D02*
X012960Y006975D01*
X013001Y007074D02*
X011210Y007074D01*
X011210Y007172D02*
X013042Y007172D01*
X013140Y007271D02*
X011210Y007271D01*
X011210Y007369D02*
X013272Y007369D01*
X013347Y007468D02*
X011210Y007468D01*
X011210Y007566D02*
X013446Y007566D01*
X013544Y007665D02*
X011210Y007665D01*
X011210Y007763D02*
X013643Y007763D01*
X013741Y007862D02*
X011210Y007862D01*
X011210Y007960D02*
X013840Y007960D01*
X013938Y008059D02*
X011210Y008059D01*
X011210Y008157D02*
X014037Y008157D01*
X014135Y008256D02*
X011210Y008256D01*
X011210Y008354D02*
X014234Y008354D01*
X014332Y008453D02*
X011210Y008453D01*
X011210Y008551D02*
X014431Y008551D01*
X014464Y008650D02*
X011210Y008650D01*
X011210Y008748D02*
X014460Y008748D01*
X014460Y008847D02*
X011210Y008847D01*
X011210Y008945D02*
X014489Y008945D01*
X014530Y009044D02*
X011210Y009044D01*
X011210Y009142D02*
X014612Y009142D01*
X014733Y009241D02*
X011210Y009241D01*
X011210Y009339D02*
X014664Y009339D01*
X014565Y009438D02*
X011210Y009438D01*
X011210Y009536D02*
X014511Y009536D01*
X014421Y009635D02*
X011210Y009635D01*
X011210Y009733D02*
X014322Y009733D01*
X014224Y009832D02*
X011210Y009832D01*
X011210Y009930D02*
X014125Y009930D01*
X014027Y010029D02*
X011210Y010029D01*
X011210Y010127D02*
X013928Y010127D01*
X013830Y010226D02*
X011210Y010226D01*
X011210Y010324D02*
X013731Y010324D01*
X014058Y010620D02*
X015493Y010620D01*
X015395Y010718D02*
X014023Y010718D01*
X014040Y010817D02*
X015296Y010817D01*
X015198Y010915D02*
X014040Y010915D01*
X014024Y011014D02*
X015099Y011014D01*
X015001Y011112D02*
X013983Y011112D01*
X013920Y011211D02*
X014902Y011211D01*
X014804Y011309D02*
X013821Y011309D01*
X014410Y011703D02*
X011210Y011703D01*
X011210Y011605D02*
X014508Y011605D01*
X014607Y011506D02*
X011210Y011506D01*
X011210Y011408D02*
X014705Y011408D01*
X015117Y011703D02*
X018950Y011703D01*
X018950Y011605D02*
X015216Y011605D01*
X015314Y011506D02*
X018950Y011506D01*
X018950Y011408D02*
X015413Y011408D01*
X015511Y011309D02*
X018950Y011309D01*
X018950Y011211D02*
X015610Y011211D01*
X015708Y011112D02*
X018950Y011112D01*
X018950Y011014D02*
X015807Y011014D01*
X015905Y010915D02*
X018895Y010915D01*
X018796Y010817D02*
X016004Y010817D01*
X016102Y010718D02*
X018698Y010718D01*
X018599Y010620D02*
X016201Y010620D01*
X015789Y010324D02*
X014354Y010324D01*
X014452Y010226D02*
X014697Y010226D01*
X014597Y010127D02*
X014551Y010127D01*
X014255Y010423D02*
X015690Y010423D01*
X015592Y010521D02*
X014157Y010521D01*
X013500Y010867D02*
X014600Y009767D01*
X015000Y009767D01*
X015489Y009536D02*
X015850Y009536D01*
X015850Y009438D02*
X015435Y009438D01*
X015336Y009339D02*
X015850Y009339D01*
X015850Y009241D02*
X015267Y009241D01*
X015388Y009142D02*
X015850Y009142D01*
X015850Y009044D02*
X015470Y009044D01*
X015511Y008945D02*
X015850Y008945D01*
X015850Y008847D02*
X015540Y008847D01*
X015540Y008748D02*
X015850Y008748D01*
X015850Y008650D02*
X015536Y008650D01*
X015495Y008551D02*
X015850Y008551D01*
X015850Y008453D02*
X015450Y008453D01*
X015351Y008354D02*
X015850Y008354D01*
X015850Y008256D02*
X015230Y008256D01*
X015373Y008157D02*
X015850Y008157D01*
X015850Y008059D02*
X015464Y008059D01*
X015504Y007960D02*
X015840Y007960D01*
X015741Y007862D02*
X015540Y007862D01*
X015540Y007763D02*
X015643Y007763D01*
X015544Y007665D02*
X015540Y007665D01*
X014786Y007271D02*
X013860Y007271D01*
X013956Y007369D02*
X014634Y007369D01*
X014539Y007468D02*
X014055Y007468D01*
X014153Y007566D02*
X014499Y007566D01*
X014460Y007665D02*
X014252Y007665D01*
X014350Y007763D02*
X014460Y007763D01*
X014449Y007862D02*
X014460Y007862D01*
X014642Y007172D02*
X013958Y007172D01*
X013999Y007074D02*
X014543Y007074D01*
X014502Y006975D02*
X014040Y006975D01*
X014040Y006877D02*
X014461Y006877D01*
X014460Y006778D02*
X014040Y006778D01*
X014007Y006680D02*
X014460Y006680D01*
X014492Y006581D02*
X013966Y006581D01*
X013880Y006483D02*
X014533Y006483D01*
X014619Y006384D02*
X013746Y006384D01*
X012986Y005990D02*
X011210Y005990D01*
X011210Y005892D02*
X012871Y005892D01*
X012773Y005793D02*
X011210Y005793D01*
X011210Y005695D02*
X012674Y005695D01*
X012576Y005596D02*
X011210Y005596D01*
X011210Y005498D02*
X012477Y005498D01*
X012379Y005399D02*
X011210Y005399D01*
X011210Y005301D02*
X012044Y005301D01*
X012005Y005202D02*
X011210Y005202D01*
X011210Y005104D02*
X012005Y005104D01*
X012005Y005005D02*
X011210Y005005D01*
X011210Y004907D02*
X012005Y004907D01*
X012005Y004808D02*
X011210Y004808D01*
X011210Y004710D02*
X012005Y004710D01*
X012005Y004611D02*
X011210Y004611D01*
X011210Y004513D02*
X012005Y004513D01*
X012062Y004414D02*
X011210Y004414D01*
X011210Y004316D02*
X020590Y004316D01*
X020590Y004414D02*
X013645Y004414D01*
X013611Y004403D02*
X013682Y004426D01*
X013749Y004460D01*
X013809Y004504D01*
X013862Y004557D01*
X013906Y004618D01*
X013940Y004684D01*
X013963Y004755D01*
X013975Y004829D01*
X013975Y004848D01*
X013519Y004848D01*
X013519Y004886D01*
X013481Y004886D01*
X013481Y005342D01*
X013463Y005342D01*
X013389Y005330D01*
X013318Y005307D01*
X013251Y005273D01*
X013191Y005229D01*
X013138Y005176D01*
X013094Y005116D01*
X013060Y005049D01*
X013037Y004978D01*
X013025Y004904D01*
X013025Y004886D01*
X013481Y004886D01*
X013481Y004848D01*
X013025Y004848D01*
X013025Y004829D01*
X013037Y004755D01*
X013060Y004684D01*
X013094Y004618D01*
X013138Y004557D01*
X013191Y004504D01*
X013251Y004460D01*
X013318Y004426D01*
X013389Y004403D01*
X013463Y004392D01*
X013481Y004392D01*
X013481Y004848D01*
X013519Y004848D01*
X013519Y004392D01*
X013537Y004392D01*
X013611Y004403D01*
X013519Y004414D02*
X013481Y004414D01*
X013481Y004513D02*
X013519Y004513D01*
X013519Y004611D02*
X013481Y004611D01*
X013481Y004710D02*
X013519Y004710D01*
X013519Y004808D02*
X013481Y004808D01*
X013519Y004886D02*
X013975Y004886D01*
X013975Y004904D01*
X013963Y004978D01*
X013940Y005049D01*
X013906Y005116D01*
X013862Y005176D01*
X013809Y005229D01*
X013749Y005273D01*
X013682Y005307D01*
X013611Y005330D01*
X013537Y005342D01*
X013519Y005342D01*
X013519Y004886D01*
X013519Y004907D02*
X013481Y004907D01*
X013481Y005005D02*
X013519Y005005D01*
X013519Y005104D02*
X013481Y005104D01*
X013481Y005202D02*
X013519Y005202D01*
X013519Y005301D02*
X013481Y005301D01*
X013306Y005301D02*
X012988Y005301D01*
X012995Y005202D02*
X013164Y005202D01*
X013088Y005104D02*
X012995Y005104D01*
X012995Y005005D02*
X013046Y005005D01*
X013025Y004907D02*
X012995Y004907D01*
X012995Y004808D02*
X013028Y004808D01*
X013052Y004710D02*
X012995Y004710D01*
X012995Y004611D02*
X013098Y004611D01*
X013182Y004513D02*
X012995Y004513D01*
X012938Y004414D02*
X013355Y004414D01*
X013818Y004513D02*
X020590Y004513D01*
X020590Y004611D02*
X013902Y004611D01*
X013948Y004710D02*
X020590Y004710D01*
X020590Y004808D02*
X013972Y004808D01*
X013975Y004907D02*
X020590Y004907D01*
X020590Y005005D02*
X013954Y005005D01*
X013912Y005104D02*
X020590Y005104D01*
X020590Y005202D02*
X013836Y005202D01*
X013694Y005301D02*
X014714Y005301D01*
X014604Y005399D02*
X013086Y005399D01*
X013185Y005498D02*
X014527Y005498D01*
X014558Y006089D02*
X011210Y006089D01*
X011210Y006187D02*
X014657Y006187D01*
X016464Y006877D02*
X019491Y006877D01*
X019523Y006975D02*
X016562Y006975D01*
X016661Y007074D02*
X019580Y007074D01*
X019673Y007172D02*
X016759Y007172D01*
X015850Y009635D02*
X015530Y009635D01*
X015540Y009733D02*
X015850Y009733D01*
X015850Y009832D02*
X015540Y009832D01*
X015517Y009930D02*
X015850Y009930D01*
X015850Y010029D02*
X015476Y010029D01*
X015403Y010127D02*
X015850Y010127D01*
X015850Y010226D02*
X015303Y010226D01*
X013180Y010423D02*
X011210Y010423D01*
X011210Y010521D02*
X013082Y010521D01*
X013018Y010620D02*
X011210Y010620D01*
X011210Y010718D02*
X012977Y010718D01*
X012960Y010817D02*
X011210Y010817D01*
X011210Y010915D02*
X012960Y010915D01*
X012976Y011014D02*
X011210Y011014D01*
X011210Y011112D02*
X013017Y011112D01*
X013080Y011211D02*
X011210Y011211D01*
X011210Y011309D02*
X013179Y011309D01*
X014114Y011999D02*
X011210Y011999D01*
X011210Y012097D02*
X014016Y012097D01*
X013917Y012196D02*
X011210Y012196D01*
X011210Y012294D02*
X013819Y012294D01*
X013720Y012393D02*
X011210Y012393D01*
X011210Y012491D02*
X013622Y012491D01*
X013523Y012590D02*
X011210Y012590D01*
X011210Y012688D02*
X013425Y012688D01*
X013326Y012787D02*
X011210Y012787D01*
X011210Y012885D02*
X013228Y012885D01*
X013055Y012984D02*
X011210Y012984D01*
X011210Y013082D02*
X012921Y013082D01*
X012834Y013181D02*
X011210Y013181D01*
X011210Y013279D02*
X012793Y013279D01*
X012760Y013378D02*
X011210Y013378D01*
X011210Y013476D02*
X012760Y013476D01*
X012760Y013575D02*
X011210Y013575D01*
X011210Y013673D02*
X012801Y013673D01*
X012842Y013772D02*
X011210Y013772D01*
X011210Y013870D02*
X012940Y013870D01*
X013101Y013969D02*
X011210Y013969D01*
X013499Y013969D02*
X017101Y013969D01*
X016940Y013870D02*
X013660Y013870D01*
X013758Y013772D02*
X016842Y013772D01*
X016801Y013673D02*
X013799Y013673D01*
X013840Y013575D02*
X016760Y013575D01*
X016760Y013476D02*
X013840Y013476D01*
X013840Y013378D02*
X016760Y013378D01*
X016793Y013279D02*
X013807Y013279D01*
X013766Y013181D02*
X016834Y013181D01*
X016921Y013082D02*
X013738Y013082D01*
X013837Y012984D02*
X017055Y012984D01*
X017545Y012984D02*
X018950Y012984D01*
X018950Y013082D02*
X017679Y013082D01*
X017766Y013181D02*
X018950Y013181D01*
X018902Y013279D02*
X018698Y013279D01*
X018797Y013378D02*
X018803Y013378D01*
X018400Y013667D02*
X018200Y013467D01*
X017300Y013467D01*
X017758Y013772D02*
X017915Y013772D01*
X017918Y013870D02*
X017660Y013870D01*
X017499Y013969D02*
X018016Y013969D01*
X019498Y013279D02*
X019730Y013279D01*
X019631Y013378D02*
X019597Y013378D01*
X020369Y013378D02*
X020590Y013378D01*
X020590Y013476D02*
X020465Y013476D01*
X018950Y012885D02*
X013935Y012885D01*
X014034Y012787D02*
X018950Y012787D01*
X018950Y012688D02*
X014132Y012688D01*
X014231Y012590D02*
X018950Y012590D01*
X018950Y012491D02*
X014329Y012491D01*
X014428Y012393D02*
X018950Y012393D01*
X018950Y012294D02*
X014526Y012294D01*
X014625Y012196D02*
X018950Y012196D01*
X018950Y012097D02*
X014723Y012097D01*
X014822Y011999D02*
X018950Y011999D01*
X018950Y011900D02*
X014920Y011900D01*
X015019Y011802D02*
X018950Y011802D01*
X014311Y011802D02*
X011210Y011802D01*
X011210Y011900D02*
X014213Y011900D01*
X011210Y004217D02*
X020590Y004217D01*
X020590Y004119D02*
X011210Y004119D01*
X011210Y004020D02*
X020590Y004020D01*
X020590Y003922D02*
X011210Y003922D01*
X011210Y003823D02*
X020590Y003823D01*
X020590Y003725D02*
X011210Y003725D01*
X011210Y003626D02*
X011242Y003626D01*
X011798Y003626D02*
X013856Y003626D01*
X013880Y003639D02*
X013807Y003601D01*
X013741Y003553D01*
X013683Y003495D01*
X013635Y003429D01*
X011992Y003429D01*
X012032Y003331D02*
X013590Y003331D01*
X013598Y003356D02*
X013573Y003278D01*
X013561Y003207D01*
X014030Y003207D01*
X014030Y003675D01*
X013958Y003664D01*
X013880Y003639D01*
X014030Y003626D02*
X014130Y003626D01*
X014130Y003675D02*
X014202Y003664D01*
X014280Y003639D01*
X014353Y003601D01*
X014419Y003553D01*
X014477Y003495D01*
X014525Y003429D01*
X020590Y003429D01*
X020590Y003331D02*
X014570Y003331D01*
X014562Y003356D02*
X014525Y003429D01*
X014562Y003356D02*
X014587Y003278D01*
X014599Y003207D01*
X014130Y003207D01*
X014030Y003207D01*
X014030Y003107D01*
X013561Y003107D01*
X013573Y003035D01*
X013598Y002957D01*
X013635Y002884D01*
X013683Y002818D01*
X013741Y002760D01*
X013807Y002712D01*
X013880Y002675D01*
X013958Y002649D01*
X014030Y002638D01*
X014030Y003107D01*
X014130Y003107D01*
X014130Y003207D01*
X014130Y003675D01*
X014130Y003528D02*
X014030Y003528D01*
X014030Y003429D02*
X014130Y003429D01*
X014130Y003331D02*
X014030Y003331D01*
X014030Y003232D02*
X014130Y003232D01*
X014130Y003134D02*
X020590Y003134D01*
X020590Y003232D02*
X014595Y003232D01*
X014599Y003107D02*
X014130Y003107D01*
X014130Y002638D01*
X014202Y002649D01*
X014280Y002675D01*
X014353Y002712D01*
X014419Y002760D01*
X014477Y002818D01*
X014525Y002884D01*
X014562Y002957D01*
X014587Y003035D01*
X014599Y003107D01*
X014587Y003035D02*
X020590Y003035D01*
X020590Y002937D02*
X014552Y002937D01*
X014491Y002838D02*
X020590Y002838D01*
X020590Y002740D02*
X014391Y002740D01*
X014130Y002740D02*
X014030Y002740D01*
X014030Y002838D02*
X014130Y002838D01*
X014130Y002937D02*
X014030Y002937D01*
X014030Y003035D02*
X014130Y003035D01*
X014030Y003134D02*
X012060Y003134D01*
X012060Y003232D02*
X013565Y003232D01*
X013598Y003356D02*
X013635Y003429D01*
X013716Y003528D02*
X011913Y003528D01*
X012054Y003035D02*
X013573Y003035D01*
X013608Y002937D02*
X012013Y002937D01*
X011965Y002838D02*
X013669Y002838D01*
X013769Y002740D02*
X011867Y002740D01*
X011687Y002641D02*
X014011Y002641D01*
X014030Y002641D02*
X014130Y002641D01*
X014149Y002641D02*
X020590Y002641D01*
X020590Y002543D02*
X011210Y002543D01*
X011210Y002641D02*
X011353Y002641D01*
X011210Y002444D02*
X020590Y002444D01*
X020590Y002346D02*
X011210Y002346D01*
X011210Y002247D02*
X020590Y002247D01*
X020590Y002149D02*
X011210Y002149D01*
X011210Y002050D02*
X020590Y002050D01*
X020590Y001952D02*
X011210Y001952D01*
X011210Y001853D02*
X011259Y001853D01*
X011781Y001853D02*
X013819Y001853D01*
X013694Y001755D02*
X011906Y001755D01*
X011989Y001656D02*
X013611Y001656D01*
X013570Y001558D02*
X012030Y001558D01*
X012060Y001459D02*
X013540Y001459D01*
X013540Y001361D02*
X012060Y001361D01*
X012057Y001262D02*
X013543Y001262D01*
X013584Y001164D02*
X012016Y001164D01*
X011972Y001065D02*
X013628Y001065D01*
X014532Y001065D02*
X020590Y001065D01*
X020590Y001164D02*
X014576Y001164D01*
X014617Y001262D02*
X020590Y001262D01*
X020590Y001361D02*
X014620Y001361D01*
X014620Y001459D02*
X020590Y001459D01*
X020590Y001558D02*
X014590Y001558D01*
X014549Y001656D02*
X020590Y001656D01*
X020590Y001755D02*
X014466Y001755D01*
X014341Y001853D02*
X020590Y001853D01*
X020590Y003528D02*
X014444Y003528D01*
X014304Y003626D02*
X020590Y003626D01*
D16*
X016600Y007367D02*
X015000Y005767D01*
X013100Y005767D01*
X012500Y005167D01*
X012500Y004867D01*
X015000Y006767D02*
X016100Y007867D01*
X016100Y010367D01*
X013300Y013167D01*
X013300Y013467D01*
X019200Y013667D02*
X019200Y010867D01*
X016600Y008267D01*
X016600Y007367D01*
X015000Y008767D02*
X013500Y007267D01*
X013500Y006867D01*
M02*
