G75*
%MOIN*%
%OFA0B0*%
%FSLAX24Y24*%
%IPPOS*%
%LPD*%
%AMOC8*
5,1,8,0,0,1.08239X$1,22.5*
%
%ADD10C,0.0000*%
%ADD11C,0.0060*%
%ADD12C,0.0020*%
%ADD13C,0.0040*%
%ADD14C,0.0080*%
%ADD15C,0.0050*%
D10*
X014500Y001567D02*
X014500Y011867D01*
X014800Y012167D01*
X016100Y012167D01*
X016700Y012767D01*
X019500Y012767D01*
X020200Y012067D01*
X020500Y012067D01*
X020500Y001567D01*
X020498Y001523D01*
X020492Y001480D01*
X020483Y001438D01*
X020470Y001396D01*
X020453Y001356D01*
X020433Y001317D01*
X020410Y001280D01*
X020383Y001246D01*
X020354Y001213D01*
X020321Y001184D01*
X020287Y001157D01*
X020250Y001134D01*
X020211Y001114D01*
X020171Y001097D01*
X020129Y001084D01*
X020087Y001075D01*
X020044Y001069D01*
X020000Y001067D01*
X015000Y001067D01*
X014956Y001069D01*
X014913Y001075D01*
X014871Y001084D01*
X014829Y001097D01*
X014789Y001114D01*
X014750Y001134D01*
X014713Y001157D01*
X014679Y001184D01*
X014646Y001213D01*
X014617Y001246D01*
X014590Y001280D01*
X014567Y001317D01*
X014547Y001356D01*
X014530Y001396D01*
X014517Y001438D01*
X014508Y001480D01*
X014502Y001523D01*
X014500Y001567D01*
D11*
X016579Y003797D02*
X016579Y004224D01*
X016579Y004010D02*
X017220Y004010D01*
X017629Y004117D02*
X017629Y003797D01*
X018270Y003797D01*
X018056Y003797D02*
X018056Y004117D01*
X017950Y004224D01*
X017736Y004224D01*
X017629Y004117D01*
X017629Y004441D02*
X017629Y004548D01*
X018270Y004548D01*
X018270Y004441D02*
X018270Y004655D01*
X018163Y004871D02*
X018056Y004978D01*
X018056Y005298D01*
X017950Y005298D02*
X018270Y005298D01*
X018270Y004978D01*
X018163Y004871D01*
X017843Y004978D02*
X017843Y005191D01*
X017950Y005298D01*
X017950Y005515D02*
X017843Y005622D01*
X017843Y005942D01*
X017950Y006160D02*
X017843Y006267D01*
X017843Y006480D01*
X017950Y006587D01*
X018056Y006587D01*
X018056Y006160D01*
X017950Y006160D02*
X018163Y006160D01*
X018270Y006267D01*
X018270Y006480D01*
X018270Y006805D02*
X017843Y006805D01*
X017843Y006911D01*
X017950Y007018D01*
X017843Y007125D01*
X017950Y007232D01*
X018270Y007232D01*
X018270Y007018D02*
X017950Y007018D01*
X017950Y007449D02*
X017843Y007556D01*
X017843Y007769D01*
X017950Y007876D01*
X018056Y007876D01*
X018056Y007449D01*
X017950Y007449D02*
X018163Y007449D01*
X018270Y007556D01*
X018270Y007769D01*
X018270Y008094D02*
X017843Y008094D01*
X017843Y008414D01*
X017950Y008521D01*
X018270Y008521D01*
X018163Y008845D02*
X017736Y008845D01*
X017843Y008738D02*
X017843Y008952D01*
X018163Y008845D02*
X018270Y008952D01*
X017220Y007448D02*
X017113Y007341D01*
X016686Y007341D01*
X016793Y007234D02*
X016793Y007448D01*
X016900Y007017D02*
X017006Y007017D01*
X017006Y006590D01*
X016900Y006590D02*
X016793Y006696D01*
X016793Y006910D01*
X016900Y007017D01*
X017220Y006910D02*
X017220Y006696D01*
X017113Y006590D01*
X016900Y006590D01*
X016793Y006373D02*
X017006Y006053D01*
X017220Y006373D01*
X017220Y006053D02*
X016579Y006053D01*
X016900Y005835D02*
X016793Y005728D01*
X016793Y005408D01*
X017220Y005408D01*
X017220Y005192D02*
X017220Y004978D01*
X017220Y005085D02*
X016793Y005085D01*
X016793Y004978D01*
X016793Y004761D02*
X016793Y004655D01*
X017006Y004441D01*
X016793Y004441D02*
X017220Y004441D01*
X016579Y005085D02*
X016473Y005085D01*
X016900Y005835D02*
X017220Y005835D01*
X017950Y005515D02*
X018163Y005515D01*
X018270Y005622D01*
X018270Y005942D01*
X018200Y013367D02*
X018100Y013367D01*
X018100Y013467D01*
X018100Y013867D02*
X018100Y013967D01*
X018200Y013967D01*
X018600Y013967D02*
X018700Y013967D01*
X018700Y013867D01*
X018900Y013867D02*
X018900Y013967D01*
X019000Y013967D01*
X019400Y013967D02*
X019500Y013967D01*
X019500Y013867D01*
X019700Y013867D02*
X019700Y013967D01*
X019800Y013967D01*
X020200Y013967D02*
X020300Y013967D01*
X020300Y013867D01*
X020300Y013467D02*
X020300Y013367D01*
X020200Y013367D01*
X019800Y013367D02*
X019700Y013367D01*
X019700Y013467D01*
X019500Y013467D02*
X019500Y013367D01*
X019400Y013367D01*
X019000Y013367D02*
X018900Y013367D01*
X018900Y013467D01*
X018700Y013467D02*
X018700Y013367D01*
X018600Y013367D01*
D12*
X018626Y013057D02*
X018439Y013057D01*
X018349Y013057D02*
X018349Y012823D01*
X018303Y012777D01*
X018209Y012777D01*
X018162Y012823D01*
X018162Y013057D01*
X018073Y013010D02*
X018026Y013057D01*
X017933Y013057D01*
X017886Y013010D01*
X017886Y012823D01*
X017933Y012777D01*
X018026Y012777D01*
X018073Y012823D01*
X018073Y013010D01*
X017797Y013010D02*
X017797Y012823D01*
X017750Y012777D01*
X017610Y012777D01*
X017610Y013057D01*
X017750Y013057D01*
X017797Y013010D01*
X018532Y013057D02*
X018532Y012777D01*
X018910Y012823D02*
X018957Y012777D01*
X019050Y012777D01*
X019097Y012823D01*
X019097Y012917D01*
X019050Y012963D01*
X019003Y012963D01*
X018910Y012917D01*
X018910Y013057D01*
X019097Y013057D01*
X019186Y013057D02*
X019186Y012870D01*
X019280Y012777D01*
X019373Y012870D01*
X019373Y013057D01*
X019610Y013010D02*
X019610Y012823D01*
X019657Y012777D01*
X019750Y012777D01*
X019797Y012823D01*
X019797Y012917D01*
X019703Y012917D01*
X019610Y013010D02*
X019657Y013057D01*
X019750Y013057D01*
X019797Y013010D01*
X019886Y013057D02*
X020073Y012777D01*
X020073Y013057D01*
X020162Y013057D02*
X020303Y013057D01*
X020349Y013010D01*
X020349Y012823D01*
X020303Y012777D01*
X020162Y012777D01*
X020162Y013057D01*
X019886Y013057D02*
X019886Y012777D01*
X012490Y011860D02*
X012303Y011860D01*
X012303Y011953D02*
X012397Y011860D01*
X012397Y011770D02*
X012397Y011584D01*
X012443Y011584D02*
X012350Y011584D01*
X012303Y011630D01*
X012303Y011724D01*
X012350Y011770D01*
X012397Y011770D01*
X012490Y011724D02*
X012490Y011630D01*
X012443Y011584D01*
X012490Y011494D02*
X012210Y011494D01*
X012303Y011494D02*
X012303Y011354D01*
X012350Y011307D01*
X012443Y011307D01*
X012490Y011354D01*
X012490Y011494D01*
X012490Y011218D02*
X012350Y011218D01*
X012303Y011171D01*
X012303Y011078D01*
X012397Y011078D02*
X012397Y011218D01*
X012490Y011218D02*
X012490Y011078D01*
X012443Y011031D01*
X012397Y011078D01*
X012443Y010942D02*
X012397Y010895D01*
X012397Y010802D01*
X012350Y010755D01*
X012303Y010802D01*
X012303Y010942D01*
X012443Y010942D02*
X012490Y010895D01*
X012490Y010755D01*
X012443Y010665D02*
X012303Y010665D01*
X012443Y010665D02*
X012490Y010619D01*
X012443Y010572D01*
X012490Y010525D01*
X012443Y010479D01*
X012303Y010479D01*
X012350Y010389D02*
X012397Y010389D01*
X012397Y010202D01*
X012443Y010202D02*
X012350Y010202D01*
X012303Y010249D01*
X012303Y010343D01*
X012350Y010389D01*
X012490Y010343D02*
X012490Y010249D01*
X012443Y010202D01*
X012490Y010113D02*
X012490Y009926D01*
X012210Y009926D01*
X012350Y009561D02*
X012490Y009561D01*
X012350Y009561D02*
X012303Y009514D01*
X012303Y009374D01*
X012490Y009374D01*
X012490Y009283D02*
X012490Y009190D01*
X012490Y009236D02*
X012303Y009236D01*
X012303Y009190D01*
X012303Y009099D02*
X012303Y009005D01*
X012256Y009052D02*
X012443Y009052D01*
X012490Y009099D01*
X012443Y008916D02*
X012397Y008869D01*
X012397Y008776D01*
X012350Y008729D01*
X012303Y008776D01*
X012303Y008916D01*
X012443Y008916D02*
X012490Y008869D01*
X012490Y008729D01*
X012490Y008640D02*
X012303Y008640D01*
X012490Y008640D02*
X012490Y008500D01*
X012443Y008453D01*
X012303Y008453D01*
X012210Y008363D02*
X012210Y008270D01*
X012210Y008317D02*
X012443Y008317D01*
X012490Y008270D01*
X012490Y008223D01*
X012443Y008177D01*
X012210Y009236D02*
X012163Y009236D01*
X012303Y011953D02*
X012303Y012000D01*
X012750Y004157D02*
X012610Y004017D01*
X012797Y004017D01*
X012886Y003923D02*
X012886Y003877D01*
X012886Y003923D02*
X013073Y004110D01*
X013073Y004157D01*
X012886Y004157D01*
X012750Y004157D02*
X012750Y003877D01*
X013162Y003923D02*
X013349Y004110D01*
X013349Y003923D01*
X013303Y003877D01*
X013209Y003877D01*
X013162Y003923D01*
X013162Y004110D01*
X013209Y004157D01*
X013303Y004157D01*
X013349Y004110D01*
X013439Y004110D02*
X013485Y004157D01*
X013579Y004157D01*
X013626Y004110D01*
X013439Y003923D01*
X013485Y003877D01*
X013579Y003877D01*
X013626Y003923D01*
X013626Y004110D01*
X013439Y004110D02*
X013439Y003923D01*
D13*
X011780Y008187D02*
X011320Y008187D01*
X011780Y008494D01*
X011320Y008494D01*
X011473Y008724D02*
X011473Y008877D01*
X011550Y008954D01*
X011627Y008954D01*
X011627Y008647D01*
X011703Y008647D02*
X011550Y008647D01*
X011473Y008724D01*
X011703Y008647D02*
X011780Y008724D01*
X011780Y008877D01*
X011703Y009107D02*
X011550Y009107D01*
X011473Y009184D01*
X011473Y009338D01*
X011550Y009414D01*
X011703Y009414D01*
X011780Y009338D01*
X011780Y009184D01*
X011703Y009107D01*
X011627Y009568D02*
X011627Y009798D01*
X011550Y009875D01*
X011396Y009875D01*
X011320Y009798D01*
X011320Y009568D01*
X011780Y009568D01*
X011780Y010028D02*
X011780Y010182D01*
X011780Y010105D02*
X011473Y010105D01*
X011473Y010028D01*
X011320Y010105D02*
X011243Y010105D01*
X011473Y010335D02*
X011780Y010642D01*
X011703Y010796D02*
X011550Y010796D01*
X011473Y010872D01*
X011473Y011026D01*
X011550Y011102D01*
X011627Y011102D01*
X011627Y010796D01*
X011703Y010796D02*
X011780Y010872D01*
X011780Y011026D01*
X011780Y011256D02*
X011780Y011409D01*
X011780Y011333D02*
X011320Y011333D01*
X011320Y011256D01*
X011473Y010642D02*
X011780Y010335D01*
X012120Y011487D02*
X012427Y011487D01*
X012580Y011640D01*
X012427Y011794D01*
X012120Y011794D01*
X012350Y011947D02*
X012273Y012024D01*
X012273Y012177D01*
X012350Y012254D01*
X012427Y012254D01*
X012427Y011947D01*
X012503Y011947D02*
X012350Y011947D01*
X012503Y011947D02*
X012580Y012024D01*
X012580Y012177D01*
X012580Y012407D02*
X012273Y012407D01*
X012427Y012407D02*
X012273Y012561D01*
X012273Y012638D01*
X012503Y012791D02*
X012503Y012868D01*
X012580Y012868D01*
X012580Y012791D01*
X012503Y012791D01*
X012580Y013482D02*
X012580Y013789D01*
X012580Y013635D02*
X012120Y013635D01*
X012273Y013482D01*
X011780Y013558D02*
X011703Y013481D01*
X011396Y013481D01*
X011473Y013404D02*
X011473Y013558D01*
X011550Y013711D02*
X011703Y013711D01*
X011780Y013788D01*
X011780Y013942D01*
X011703Y014018D01*
X011550Y014018D01*
X011473Y013942D01*
X011473Y013788D01*
X011550Y013711D01*
X011550Y013251D02*
X011780Y013251D01*
X011550Y013251D02*
X011473Y013174D01*
X011473Y012944D01*
X011780Y012944D01*
X011703Y012791D02*
X011550Y012791D01*
X011473Y012714D01*
X011473Y012560D01*
X011550Y012484D01*
X011703Y012484D01*
X011780Y012560D01*
X011780Y012714D01*
X011703Y012791D01*
X011703Y012330D02*
X011780Y012253D01*
X011780Y012100D01*
X011703Y012023D01*
X011396Y012023D01*
X011320Y012100D01*
X011320Y012253D01*
X011396Y012330D01*
X011320Y014172D02*
X011320Y014248D01*
X011780Y014248D01*
X011780Y014172D02*
X011780Y014325D01*
X011780Y014479D02*
X011780Y014632D01*
X011780Y014555D02*
X011320Y014555D01*
X011320Y014479D01*
X011550Y014786D02*
X011473Y014862D01*
X011473Y015016D01*
X011550Y015093D01*
X011627Y015093D01*
X011627Y014786D01*
X011703Y014786D02*
X011550Y014786D01*
X011703Y014786D02*
X011780Y014862D01*
X011780Y015016D01*
X011780Y015246D02*
X011473Y015246D01*
X011473Y015399D02*
X011473Y015476D01*
X011473Y015399D02*
X011627Y015246D01*
D14*
X011600Y002667D02*
X011600Y001874D01*
X011950Y001067D02*
X013650Y001067D01*
X014000Y001862D02*
X014000Y002667D01*
X013650Y003467D02*
X011950Y003467D01*
X013250Y004367D02*
X013750Y004367D01*
X011720Y004867D02*
X011722Y004938D01*
X011728Y005009D01*
X011738Y005080D01*
X011752Y005149D01*
X011769Y005218D01*
X011791Y005286D01*
X011816Y005353D01*
X011845Y005418D01*
X011877Y005481D01*
X011913Y005543D01*
X011952Y005602D01*
X011995Y005659D01*
X012040Y005714D01*
X012089Y005766D01*
X012140Y005815D01*
X012194Y005861D01*
X012251Y005905D01*
X012309Y005945D01*
X012370Y005981D01*
X012433Y006015D01*
X012498Y006044D01*
X012564Y006070D01*
X012632Y006093D01*
X012700Y006111D01*
X012770Y006126D01*
X012840Y006137D01*
X012911Y006144D01*
X012982Y006147D01*
X013053Y006146D01*
X013124Y006141D01*
X013195Y006132D01*
X013265Y006119D01*
X013334Y006103D01*
X013402Y006082D01*
X013469Y006058D01*
X013535Y006030D01*
X013598Y005998D01*
X013660Y005963D01*
X013720Y005925D01*
X013778Y005883D01*
X013833Y005839D01*
X013886Y005791D01*
X013936Y005740D01*
X013983Y005687D01*
X014027Y005631D01*
X014068Y005573D01*
X014106Y005512D01*
X014140Y005450D01*
X014170Y005385D01*
X014197Y005320D01*
X014221Y005252D01*
X014240Y005184D01*
X014256Y005115D01*
X014268Y005044D01*
X014276Y004974D01*
X014280Y004903D01*
X014280Y004831D01*
X014276Y004760D01*
X014268Y004690D01*
X014256Y004619D01*
X014240Y004550D01*
X014221Y004482D01*
X014197Y004414D01*
X014170Y004349D01*
X014140Y004284D01*
X014106Y004222D01*
X014068Y004161D01*
X014027Y004103D01*
X013983Y004047D01*
X013936Y003994D01*
X013886Y003943D01*
X013833Y003895D01*
X013778Y003851D01*
X013720Y003809D01*
X013660Y003771D01*
X013598Y003736D01*
X013535Y003704D01*
X013469Y003676D01*
X013402Y003652D01*
X013334Y003631D01*
X013265Y003615D01*
X013195Y003602D01*
X013124Y003593D01*
X013053Y003588D01*
X012982Y003587D01*
X012911Y003590D01*
X012840Y003597D01*
X012770Y003608D01*
X012700Y003623D01*
X012632Y003641D01*
X012564Y003664D01*
X012498Y003690D01*
X012433Y003719D01*
X012370Y003753D01*
X012309Y003789D01*
X012251Y003829D01*
X012194Y003873D01*
X012140Y003919D01*
X012089Y003968D01*
X012040Y004020D01*
X011995Y004075D01*
X011952Y004132D01*
X011913Y004191D01*
X011877Y004253D01*
X011845Y004316D01*
X011816Y004381D01*
X011791Y004448D01*
X011769Y004516D01*
X011752Y004585D01*
X011738Y004654D01*
X011728Y004725D01*
X011722Y004796D01*
X011720Y004867D01*
X014500Y005517D02*
X014500Y006017D01*
X014750Y006267D01*
X014500Y006517D01*
X014500Y007017D01*
X014750Y007267D01*
X014500Y007517D01*
X014500Y008017D01*
X014750Y008267D01*
X014500Y008517D01*
X014500Y009017D01*
X014750Y009267D01*
X014500Y009517D01*
X014500Y010017D01*
X014750Y010267D01*
X015250Y010267D01*
X015500Y010017D01*
X015500Y009517D01*
X015250Y009267D01*
X015500Y009017D01*
X015500Y008517D01*
X015250Y008267D01*
X015500Y008017D01*
X015500Y007517D01*
X015250Y007267D01*
X015500Y007017D01*
X015500Y006517D01*
X015250Y006267D01*
X015500Y006017D01*
X015500Y005517D01*
X015250Y005267D01*
X014750Y005267D01*
X014500Y005517D01*
X013972Y007627D02*
X013028Y007627D01*
X013028Y010107D01*
X013972Y010107D01*
X013972Y007627D01*
X019500Y007517D02*
X019500Y008017D01*
X019750Y008267D01*
X019500Y008517D01*
X019500Y009017D01*
X019750Y009267D01*
X019500Y009517D01*
X019500Y010017D01*
X019750Y010267D01*
X020250Y010267D01*
X020500Y010017D01*
X020500Y009517D01*
X020250Y009267D01*
X020500Y009017D01*
X020500Y008517D01*
X020250Y008267D01*
X020500Y008017D01*
X020500Y007517D01*
X020250Y007267D01*
X020500Y007017D01*
X020500Y006517D01*
X020250Y006267D01*
X020500Y006017D01*
X020500Y005517D01*
X020250Y005267D01*
X019750Y005267D01*
X019500Y005517D01*
X019500Y006017D01*
X019750Y006267D01*
X019500Y006517D01*
X019500Y007017D01*
X019750Y007267D01*
X019500Y007517D01*
X012100Y002267D02*
X012102Y002319D01*
X012108Y002371D01*
X012118Y002423D01*
X012131Y002473D01*
X012148Y002523D01*
X012169Y002571D01*
X012194Y002617D01*
X012222Y002661D01*
X012253Y002703D01*
X012287Y002743D01*
X012324Y002780D01*
X012364Y002814D01*
X012406Y002845D01*
X012450Y002873D01*
X012496Y002898D01*
X012544Y002919D01*
X012594Y002936D01*
X012644Y002949D01*
X012696Y002959D01*
X012748Y002965D01*
X012800Y002967D01*
X012852Y002965D01*
X012904Y002959D01*
X012956Y002949D01*
X013006Y002936D01*
X013056Y002919D01*
X013104Y002898D01*
X013150Y002873D01*
X013194Y002845D01*
X013236Y002814D01*
X013276Y002780D01*
X013313Y002743D01*
X013347Y002703D01*
X013378Y002661D01*
X013406Y002617D01*
X013431Y002571D01*
X013452Y002523D01*
X013469Y002473D01*
X013482Y002423D01*
X013492Y002371D01*
X013498Y002319D01*
X013500Y002267D01*
X013498Y002215D01*
X013492Y002163D01*
X013482Y002111D01*
X013469Y002061D01*
X013452Y002011D01*
X013431Y001963D01*
X013406Y001917D01*
X013378Y001873D01*
X013347Y001831D01*
X013313Y001791D01*
X013276Y001754D01*
X013236Y001720D01*
X013194Y001689D01*
X013150Y001661D01*
X013104Y001636D01*
X013056Y001615D01*
X013006Y001598D01*
X012956Y001585D01*
X012904Y001575D01*
X012852Y001569D01*
X012800Y001567D01*
X012748Y001569D01*
X012696Y001575D01*
X012644Y001585D01*
X012594Y001598D01*
X012544Y001615D01*
X012496Y001636D01*
X012450Y001661D01*
X012406Y001689D01*
X012364Y001720D01*
X012324Y001754D01*
X012287Y001791D01*
X012253Y001831D01*
X012222Y001873D01*
X012194Y001917D01*
X012169Y001963D01*
X012148Y002011D01*
X012131Y002061D01*
X012118Y002111D01*
X012108Y002163D01*
X012102Y002215D01*
X012100Y002267D01*
X014060Y012994D02*
X016540Y012994D01*
X016540Y013939D01*
X014060Y013939D01*
X014060Y012994D01*
D15*
X014425Y013387D02*
X014470Y013342D01*
X014560Y013342D01*
X014605Y013387D01*
X014605Y013432D01*
X014560Y013477D01*
X014515Y013477D01*
X014560Y013477D02*
X014605Y013522D01*
X014605Y013567D01*
X014560Y013612D01*
X014470Y013612D01*
X014425Y013567D01*
X014720Y013567D02*
X014765Y013612D01*
X014855Y013612D01*
X014900Y013567D01*
X014900Y013522D01*
X014855Y013477D01*
X014900Y013432D01*
X014900Y013387D01*
X014855Y013342D01*
X014765Y013342D01*
X014720Y013387D01*
X014810Y013477D02*
X014855Y013477D01*
X015014Y013387D02*
X015014Y013567D01*
X015059Y013612D01*
X015149Y013612D01*
X015194Y013567D01*
X015014Y013387D01*
X015059Y013342D01*
X015149Y013342D01*
X015194Y013387D01*
X015194Y013567D01*
X013600Y009677D02*
X013420Y009677D01*
X013600Y009497D01*
X013645Y009542D01*
X013645Y009632D01*
X013600Y009677D01*
X013600Y009497D02*
X013420Y009497D01*
X013375Y009542D01*
X013375Y009632D01*
X013420Y009677D01*
X013420Y009383D02*
X013600Y009202D01*
X013645Y009202D01*
X013510Y009088D02*
X013510Y008908D01*
X013375Y009043D01*
X013645Y009043D01*
X013375Y009202D02*
X013375Y009383D01*
X013420Y009383D01*
M02*
